<svg width="163" height="34" viewBox="0 0 163 34" fill="none" xmlns="http://www.w3.org/2000/svg">
<path d="M7.48328 7.69751H14.0612C18.6778 7.69751 21.8461 10.6127 21.8461 15.2312C21.8461 19.8497 18.6778 22.7649 14.0612 22.7649H7.48328V7.69751ZM13.9103 19.3912C16.2639 19.3912 17.8631 17.8517 17.8631 15.264C17.8631 12.6763 16.2639 11.1368 13.9103 11.1368H11.4361V19.4239H13.9103V19.3912Z" fill="#101010"/>
<path d="M33.0103 19.8825H27.1264L26.0401 22.8305H22.027L28.1523 7.73026H32.0146L38.1701 22.8305H34.1268L33.0103 19.8825ZM31.8637 16.738L30.0834 11.8902L28.3032 16.738H31.8637Z" fill="#101010"/>
<path d="M52.6537 7.69751L46.6793 22.7977H42.817L36.8727 7.69751H41.1273L44.899 17.5241L48.7613 7.69751H52.6537Z" fill="#101010"/>
<path d="M53.4684 7.69751H57.3911V22.7977H53.4684V7.69751Z" fill="#101010"/>
<path d="M60.1972 7.69751H66.7751C71.3918 7.69751 74.56 10.6127 74.56 15.2312C74.56 19.8497 71.3918 22.7649 66.7751 22.7649H60.1972V7.69751V7.69751ZM66.6243 19.3912C68.9778 19.3912 70.5771 17.8517 70.5771 15.264C70.5771 12.6763 68.9778 11.1368 66.6243 11.1368H64.15V19.4239H66.6243V19.3912Z" fill="#101010"/>
<path d="M89.8584 17.3931V22.7977H85.9357V17.3276L80.6251 7.69751H84.7891L88.0781 13.6917L91.3671 7.69751H95.169L89.8584 17.3931Z" fill="#101010"/>
<path d="M95.8629 16.0829V7.69751H99.7855V15.9518C99.7855 18.5395 100.781 19.5877 102.441 19.5877C104.07 19.5877 105.066 18.5395 105.066 15.9518V7.69751H108.928V16.0829C108.928 20.6031 106.514 23.1253 102.381 23.1253C98.2768 23.0925 95.8629 20.5703 95.8629 16.0829Z" fill="#101010"/>
<path d="M110.618 21.4547L111.915 18.3102C113.153 19.1946 114.903 19.7842 116.502 19.7842C118.131 19.7842 118.765 19.2929 118.765 18.5395C118.765 16.1483 110.859 17.8844 110.859 12.2832C110.859 9.59728 112.881 7.40268 117.015 7.40268C118.825 7.40268 120.696 7.86125 122.054 8.71289L120.847 11.8902C119.519 11.104 118.192 10.711 116.985 10.711C115.325 10.711 114.752 11.3006 114.752 12.0539C114.752 14.3468 122.627 12.6435 122.627 18.2119C122.627 20.8324 120.606 23.0925 116.472 23.0925C114.209 23.0925 111.946 22.4374 110.618 21.4547Z" fill="#101010"/>
<path d="M124.347 16.0829V7.69751H128.27V15.9518C128.27 18.5395 129.266 19.5877 130.925 19.5877C132.554 19.5877 133.55 18.5395 133.55 15.9518V7.69751H137.413V16.0829C137.413 20.6031 134.999 23.1253 130.865 23.1253C126.761 23.0925 124.347 20.5703 124.347 16.0829Z" fill="#101010"/>
<path d="M144.021 11.0058V14.3141H150.146V17.6224H144.021V22.7977H140.098V7.69751H151.021V11.0058H144.021V11.0058Z" fill="#101010"/>
<path d="M163 14.4124H160.043V33.9673H163V14.4124Z" fill="#DAA520"/>
<path d="M160.526 30.79H0V34H160.526V30.79Z" fill="#DAA520"/>
</svg>
