<svg width="184" height="40" viewBox="0 0 184 40" fill="none" xmlns="http://www.w3.org/2000/svg">
<path d="M8.44736 9.05588H15.8728C21.0842 9.05588 24.6606 12.4856 24.6606 17.9191C24.6606 23.3526 21.0842 26.7823 15.8728 26.7823H8.44736V9.05588ZM15.7024 22.8131C18.3592 22.8131 20.1645 21.0019 20.1645 17.9576C20.1645 14.9133 18.3592 13.1021 15.7024 13.1021H12.9094V22.8516H15.7024V22.8131Z" fill="white"/>
<path d="M37.2631 23.3911H30.6212L29.3949 26.8594H24.8648L31.7793 9.09442H36.1391L43.0877 26.8594H38.5234L37.2631 23.3911ZM35.9688 19.6917L33.9592 13.9884L31.9496 19.6917H35.9688Z" fill="white"/>
<path d="M59.4374 9.05588L52.6932 26.8208H48.3334L41.6233 9.05588H46.4259L50.6836 20.6166L55.0435 9.05588H59.4374Z" fill="white"/>
<path d="M60.357 9.05588H64.785V26.8208H60.357V9.05588Z" fill="white"/>
<path d="M67.9527 9.05588H75.3781C80.5895 9.05588 84.1659 12.4856 84.1659 17.9191C84.1659 23.3526 80.5895 26.7823 75.3781 26.7823H67.9527V9.05588V9.05588ZM75.2078 22.8131C77.8646 22.8131 79.6698 21.0019 79.6698 17.9576C79.6698 14.9133 77.8646 13.1021 75.2078 13.1021H72.4147V22.8516H75.2078V22.8131Z" fill="white"/>
<path d="M101.435 20.4624V26.8208H97.0072V20.3854L91.0124 9.05588H95.7129L99.4256 16.1079L103.138 9.05588H107.43L101.435 20.4624Z" fill="white"/>
<path d="M108.213 18.921V9.05588H112.641V18.7669C112.641 21.8112 113.765 23.0443 115.639 23.0443C117.478 23.0443 118.602 21.8112 118.602 18.7669V9.05588H122.962V18.921C122.962 24.2389 120.237 27.2062 115.571 27.2062C110.938 27.1676 108.213 24.2004 108.213 18.921Z" fill="white"/>
<path d="M124.869 25.2408L126.334 21.5414C127.73 22.5819 129.706 23.2755 131.511 23.2755C133.351 23.2755 134.066 22.6975 134.066 21.8112C134.066 18.9981 125.142 21.0405 125.142 14.4509C125.142 11.2909 127.424 8.70905 132.09 8.70905C134.134 8.70905 136.246 9.24854 137.779 10.2505L136.416 13.9884C134.917 13.0636 133.419 12.6011 132.056 12.6011C130.183 12.6011 129.536 13.2948 129.536 14.1811C129.536 16.8786 138.426 14.8747 138.426 21.4258C138.426 24.5087 136.144 27.1676 131.477 27.1676C128.923 27.1676 126.368 26.3969 124.869 25.2408Z" fill="white"/>
<path d="M140.367 18.921V9.05588H144.795V18.7669C144.795 21.8112 145.919 23.0443 147.793 23.0443C149.632 23.0443 150.756 21.8112 150.756 18.7669V9.05588H155.116V18.921C155.116 24.2389 152.391 27.2062 147.725 27.2062C143.092 27.1676 140.367 24.2004 140.367 18.921Z" fill="white"/>
<path d="M162.576 12.948V16.8401H169.49V20.7322H162.576V26.8208H158.148V9.05588H170.478V12.948H162.576V12.948Z" fill="white"/>
<path d="M184 16.9557H180.662V39.9615H184V16.9557Z" fill="#DAA520"/>
<path d="M181.207 36.2235H0V40H181.207V36.2235Z" fill="#DAA520"/>
</svg>
