<svg width="50" height="11" viewBox="0 0 50 11" fill="none" xmlns="http://www.w3.org/2000/svg">
<path d="M15.735 0.455487H17.0083V5.98344H15.735V3.89234H14.1408V5.98344H12.8675V0.455487H14.1408V2.6294H15.735V0.455487Z" fill="black"/>
<path d="M20.5072 5.98344C20.2277 5.98344 19.9586 5.93168 19.7101 5.82816C19.4617 5.72464 19.234 5.57971 19.0373 5.38302C18.8406 5.18634 18.6853 4.95859 18.5714 4.69979C18.4679 4.45135 18.4058 4.18219 18.4058 3.89234V0.434782H19.6791V3.88199C19.6791 4.09938 19.7619 4.29607 19.9275 4.4617C20.0932 4.61698 20.2899 4.69979 20.5176 4.69979C20.6315 4.69979 20.735 4.67909 20.8385 4.62733C20.942 4.58592 21.0248 4.52381 21.0973 4.45135C21.1698 4.37888 21.2319 4.28572 21.2733 4.19255C21.3147 4.08903 21.3354 3.98551 21.3354 3.87164V0.445135H22.6087V3.87164C22.6087 4.16149 22.5673 4.43064 22.4534 4.68944C22.3499 4.94824 22.1946 5.16563 22.0083 5.36232C21.8219 5.54865 21.5942 5.70393 21.3458 5.81781C21.087 5.93168 20.8178 5.99379 20.5383 5.99379H20.5072V5.98344Z" fill="black"/>
<path d="M27.8054 0.445135H29.1201L29.441 5.98344H28.1677L28.0331 3.72671L27.2671 5.98344H25.9938L25.176 3.63354L25.0207 5.98344H23.7371L24.089 0.445135H25.4037L26.6149 3.91304L27.8054 0.445135Z" fill="black"/>
<path d="M33.7474 5.98344L33.53 5.31056H31.7909L31.5631 5.98344H30.2174L32.1014 0.455487H33.3023L35.0932 5.98344H33.7474ZM32.2257 4.04762H33.1263L32.6915 2.70186L32.2257 4.04762Z" fill="black"/>
<path d="M37.8986 4.55487C37.8364 4.56522 37.764 4.57557 37.7019 4.57557C37.6397 4.57557 37.5673 4.58592 37.4948 4.58592V5.98344H36.2215V0.476191H37.4948C37.8157 0.476191 38.1056 0.538303 38.3851 0.652174C38.6646 0.766046 38.9027 0.910972 39.1097 1.09731C39.3168 1.28364 39.4824 1.50104 39.5963 1.74948C39.7101 1.99793 39.7723 2.25673 39.7723 2.53623C39.7723 2.83644 39.7101 3.10559 39.5859 3.36439C39.4617 3.61284 39.2857 3.84058 39.058 4.02692L40.2795 6.00414H38.7785L37.8986 4.55487ZM37.4948 3.31263C37.6294 3.31263 37.764 3.28157 37.8778 3.24017C38.0021 3.19876 38.1056 3.13665 38.1988 3.07453C38.2919 3.00207 38.3644 2.91925 38.4161 2.82609C38.4679 2.73292 38.499 2.6294 38.499 2.52588C38.499 2.42236 38.4679 2.31884 38.4161 2.23602C38.3644 2.14286 38.2919 2.07039 38.1988 1.99793C38.1056 1.92547 38.0021 1.87371 37.8778 1.8323C37.7536 1.79089 37.6294 1.77019 37.4948 1.75984V3.31263Z" fill="black"/>
<path d="M45.0621 1.72878H42.7847V2.56729H44.6273V3.84058H42.7847V4.71015H45.0621V5.98344H41.5114V0.455487L45.0621 0.445135V1.72878Z" fill="black"/>
<path d="M48.1159 6.09731C47.94 6.09731 47.764 6.0766 47.588 6.02484C47.412 5.97308 47.2464 5.90062 47.0911 5.80745C46.8219 5.63147 46.6046 5.40373 46.4596 5.12422C46.3043 4.84472 46.2319 4.54451 46.2319 4.21325H47.5052C47.5052 4.36853 47.5362 4.4824 47.5983 4.56522C47.6605 4.64803 47.7226 4.69979 47.7743 4.73085C47.8675 4.79296 47.9607 4.82402 48.0642 4.82402C48.1677 4.82402 48.2712 4.81367 48.3747 4.76191C48.4472 4.73085 48.499 4.68944 48.5404 4.64803C48.5818 4.60663 48.6128 4.55486 48.6335 4.51346C48.6542 4.47205 48.6749 4.43064 48.6749 4.38923C48.6749 4.34783 48.6853 4.31677 48.6853 4.29607C48.6853 4.27536 48.6853 4.23395 48.6749 4.2029C48.6749 4.16149 48.6542 4.12008 48.6335 4.07868C48.6128 4.03727 48.5818 3.98551 48.5404 3.9441C48.499 3.90269 48.4369 3.86128 48.3747 3.83023C48.323 3.80952 48.2609 3.77847 48.1988 3.75776C48.1366 3.73706 48.0642 3.71635 48.0021 3.6853C47.8778 3.64389 47.7433 3.60248 47.6087 3.55072C47.4741 3.49896 47.3395 3.43685 47.205 3.34369C47.029 3.22981 46.8841 3.09524 46.7598 2.92961C46.6356 2.76398 46.5528 2.58799 46.501 2.3913C46.4493 2.20497 46.4286 1.99793 46.4493 1.80124C46.47 1.5942 46.5217 1.40787 46.6149 1.22153C46.7081 1.0559 46.8219 0.900621 46.9565 0.776397C47.0911 0.652173 47.2464 0.548654 47.412 0.476191C47.5776 0.403727 47.7536 0.362319 47.9503 0.341615C48.1366 0.331263 48.3333 0.341615 48.53 0.393375C48.7164 0.434782 48.8923 0.507247 49.0476 0.610767C49.2029 0.703934 49.3375 0.828157 49.4513 0.962733C49.5652 1.09731 49.648 1.25259 49.7101 1.42857C49.7723 1.60455 49.8033 1.78054 49.8033 1.96687H48.5404C48.5404 1.853 48.499 1.77019 48.4265 1.72878C48.354 1.68737 48.2919 1.65631 48.2298 1.63561C48.2195 1.63561 48.1988 1.63561 48.1573 1.62526C48.1159 1.61491 48.0745 1.61491 48.0331 1.62526C47.9814 1.63561 47.94 1.64596 47.8882 1.67702C47.8364 1.70807 47.795 1.74948 47.764 1.8116C47.7226 1.89441 47.7122 1.97723 47.7433 2.06004C47.764 2.15321 47.8157 2.21532 47.8985 2.26708C47.971 2.30849 48.0435 2.33955 48.1366 2.38095C48.2195 2.41201 48.3126 2.44306 48.4058 2.47412C48.4886 2.49482 48.5818 2.52588 48.6646 2.55694C48.7474 2.58799 48.8406 2.61905 48.9337 2.66045C49.265 2.81573 49.5238 3.03312 49.7101 3.32298C49.8965 3.61284 49.9896 3.93375 49.9896 4.29607C49.9896 4.64803 49.8965 4.96894 49.7101 5.2588C49.5238 5.54865 49.265 5.7764 48.9337 5.92132C48.7992 5.98344 48.6749 6.02485 48.5404 6.0559C48.3851 6.07661 48.2505 6.09731 48.1159 6.09731Z" fill="black"/>
<path d="M14.3271 10.5797C14.1097 10.5797 13.8923 10.5383 13.6853 10.4555C13.4783 10.3727 13.2919 10.2484 13.1159 10.0828C12.9503 9.91719 12.8261 9.73085 12.7433 9.52381C12.6605 9.31677 12.619 9.09938 12.619 8.87164C12.619 8.63354 12.6605 8.41615 12.7433 8.20911C12.8261 8.00207 12.9503 7.81574 13.1159 7.66046C13.2816 7.49483 13.4679 7.3706 13.6853 7.28779C13.8923 7.20497 14.1097 7.16356 14.3271 7.16356C14.5445 7.16356 14.7619 7.20497 14.9689 7.28779C15.176 7.3706 15.3623 7.49483 15.5383 7.66046L14.9793 8.21946C14.8861 8.12629 14.7826 8.06418 14.6687 8.01242C14.5549 7.97102 14.441 7.93996 14.3168 7.93996C14.2029 7.93996 14.0787 7.96066 13.9648 8.01242C13.8509 8.05383 13.7474 8.12629 13.6646 8.21946C13.5818 8.31263 13.5093 8.4058 13.4679 8.51967C13.4265 8.63354 13.3954 8.74741 13.3954 8.87164C13.3954 8.99586 13.4161 9.10973 13.4679 9.2236C13.5197 9.33747 13.5818 9.43064 13.6646 9.52381C13.7578 9.61698 13.8613 9.67909 13.9648 9.73085C14.0787 9.77226 14.1925 9.80331 14.3168 9.80331C14.4306 9.80331 14.5549 9.78261 14.6687 9.73085C14.7826 9.68944 14.8861 9.61698 14.9793 9.52381L15.5383 10.0828C15.3727 10.2484 15.1863 10.3727 14.9793 10.4555C14.7619 10.5383 14.5445 10.5797 14.3271 10.5797Z" fill="#2B6CD9"/>
<path d="M18.6542 10.5901L18.5197 10.176H17.4431L17.2981 10.5901H16.4596L17.6294 7.17391H18.3747L19.4824 10.5901H18.6542ZM17.7122 9.38923H18.2712L18.0021 8.56108L17.7122 9.38923Z" fill="#2B6CD9"/>
<path d="M22.8468 8.60248C22.8468 8.79917 22.8054 8.98551 22.7329 9.15114C22.6605 9.32712 22.5569 9.47205 22.4327 9.60663C22.3085 9.7412 22.1532 9.84472 21.9876 9.91718C21.8116 9.98965 21.6356 10.0311 21.4389 10.0311V10.5797H20.6522V7.16356H21.4389C21.6356 7.16356 21.8219 7.20497 21.9876 7.28779C22.1532 7.3706 22.3085 7.47412 22.4327 7.59834C22.5569 7.73292 22.6605 7.87785 22.7329 8.05383C22.8157 8.22981 22.8468 8.4058 22.8468 8.60248ZM21.4389 9.25466C21.5217 9.25466 21.6046 9.23395 21.6874 9.19255C21.7598 9.16149 21.8323 9.10973 21.8841 9.04762C21.9358 8.98551 21.9876 8.9234 22.0186 8.84058C22.0497 8.75776 22.0704 8.6853 22.0704 8.59213C22.0704 8.50932 22.0497 8.4265 22.0186 8.34368C21.9876 8.26087 21.9462 8.19876 21.8841 8.13665C21.8219 8.07453 21.7598 8.03313 21.6874 7.99172C21.6149 7.96066 21.5321 7.93996 21.4389 7.92961V9.25466Z" fill="#2B6CD9"/>
<path d="M25.0311 10.5901H24.2443V7.16356H25.0311V10.5901Z" fill="#2B6CD9"/>
<path d="M28.3954 7.15321V7.93996H27.7329V10.5901H26.9462V7.93996H26.294V7.15321H28.3954Z" fill="#2B6CD9"/>
<path d="M31.6149 10.5901L31.4803 10.176H30.4037L30.2692 10.5901H29.4306L30.6004 7.17391H31.3458L32.4534 10.5901H31.6149ZM30.6729 9.38923H31.2319L30.9627 8.56108L30.6729 9.38923Z" fill="#2B6CD9"/>
<path d="M35.6418 10.5901H33.6025V7.16356H34.3892V9.80331H35.6418V10.5901V10.5901Z" fill="#2B6CD9"/>
<path d="M10.9317 3.64389H7.28779V10.9317H10.9317V3.64389Z" fill="black"/>
<path d="M10.9317 0H7.28779V3.02277H10.9317V0Z" fill="#2B6CD9"/>
<path d="M3.64389 0H0V3.02277H3.64389V0Z" fill="black"/>
<path d="M10.9317 3.64389H0V7.28779H10.9317V3.64389Z" fill="black"/>
<path d="M3.64389 3.64389H0V10.9317H3.64389V3.64389Z" fill="black"/>
</svg>
