<svg width="100" height="20" viewBox="0 0 100 20" fill="none" xmlns="http://www.w3.org/2000/svg">
<path d="M4.59097 4.31942H8.62651C11.4588 4.31942 13.4025 5.95529 13.4025 8.54693C13.4025 11.1386 11.4588 12.7744 8.62651 12.7744H4.59097V4.31942ZM8.53395 10.8813C9.97786 10.8813 10.959 10.0174 10.959 8.56532C10.959 7.11326 9.97786 6.24937 8.53395 6.24937H7.016V10.8996H8.53395V10.8813Z" fill="#101010"/>
<path d="M20.2517 11.157H16.6419L15.9755 12.8112H13.5135L17.2713 4.33779H19.6408L23.4172 12.8112H20.9366L20.2517 11.157ZM19.5483 9.39243L18.4561 6.67211L17.3639 9.39243H19.5483Z" fill="#101010"/>
<path d="M32.3029 4.31942L28.6376 12.7928H26.2681L22.6213 4.31942H25.2315L27.5454 9.83357L29.9149 4.31942H32.3029Z" fill="#101010"/>
<path d="M32.8027 4.31942H35.2093V12.7928H32.8027V4.31942Z" fill="#101010"/>
<path d="M36.9308 4.31942H40.9664C43.7986 4.31942 45.7424 5.95529 45.7424 8.54693C45.7424 11.1386 43.7986 12.7744 40.9664 12.7744H36.9308V4.31942ZM40.8738 10.8813C42.3177 10.8813 43.2988 10.0174 43.2988 8.56532C43.2988 7.11326 42.3177 6.24937 40.8738 6.24937H39.3558V10.8996H40.8738V10.8813Z" fill="#101010"/>
<path d="M55.1278 9.76005V12.7928H52.7213V9.72329L49.4633 4.31942H52.0179L54.0356 7.68305L56.0534 4.31942H58.3859L55.1278 9.76005Z" fill="#101010"/>
<path d="M58.8116 9.02483V4.31942H61.2181V8.95131C61.2181 10.4034 61.829 10.9915 62.8471 10.9915C63.8468 10.9915 64.4576 10.4034 64.4576 8.95131V4.31942H66.8271V9.02483C66.8271 11.5613 65.3462 12.9766 62.8101 12.9766C60.2925 12.9583 58.8116 11.543 58.8116 9.02483Z" fill="#101010"/>
<path d="M67.8637 12.0392L68.6597 10.2747C69.4187 10.771 70.4924 11.1018 71.4735 11.1018C72.4731 11.1018 72.8619 10.8261 72.8619 10.4034C72.8619 9.06158 68.0118 10.0357 68.0118 6.89268C68.0118 5.38548 69.2521 4.15398 71.7882 4.15398C72.8989 4.15398 74.0466 4.41131 74.8797 4.8892L74.1392 6.67211C73.3247 6.23098 72.5102 6.01042 71.7697 6.01042C70.7516 6.01042 70.3998 6.34126 70.3998 6.76401C70.3998 8.05065 75.2314 7.09486 75.2314 10.2195C75.2314 11.69 73.9911 12.9582 71.455 12.9582C70.0666 12.9582 68.6783 12.5906 67.8637 12.0392Z" fill="#101010"/>
<path d="M76.2866 9.02483V4.31942H78.6931V8.95131C78.6931 10.4034 79.304 10.9915 80.3221 10.9915C81.3218 10.9915 81.9327 10.4034 81.9327 8.95131V4.31942H84.3021V9.02483C84.3021 11.5613 82.8212 12.9766 80.2851 12.9766C77.7675 12.9583 76.2866 11.543 76.2866 9.02483Z" fill="#101010"/>
<path d="M88.3563 6.17585V8.03228H92.1141V9.88871H88.3563V12.7928H85.9497V4.31942H92.651V6.17585H88.3563Z" fill="#101010"/>
<path d="M100 8.08742H98.1858V19.0606H100V8.08742Z" fill="#DAA520"/>
<path d="M98.4821 17.2777H0V19.0789H98.4821V17.2777Z" fill="#DAA520"/>
</svg>
