<svg width="30" height="30" viewBox="0 0 30 30" fill="none" xmlns="http://www.w3.org/2000/svg">
<ellipse cx="14.5469" cy="14.5455" rx="14.5469" ry="14.5455" fill="#C71610"/>
<path d="M15.0995 16.3851L14.2024 15.677C13.9293 15.447 13.5553 15.143 13.5553 14.5869C13.5553 14.0284 13.9291 13.6733 14.2533 13.3444C15.298 12.5086 16.3425 11.6192 16.3425 9.74495C16.3425 7.81765 15.149 6.80373 14.5767 6.32261H16.1193L17.7383 5.2892H12.8334C11.4874 5.2892 9.54762 5.61249 8.12749 6.80373C7.05725 7.74185 6.53519 9.03523 6.53519 10.1999C6.53519 12.1765 8.02894 14.1804 10.6673 14.1804C10.9165 14.1804 11.189 14.1555 11.4633 14.1297C11.34 14.4343 11.2155 14.688 11.2155 15.1183C11.2155 15.9034 11.6125 16.3847 11.9624 16.8407C10.8417 16.9191 8.7491 17.0454 7.20627 18.0087C5.73706 18.8963 5.28981 20.1881 5.28981 21.1003C5.28981 22.9769 7.03133 24.7248 10.642 24.7248C14.9238 24.7248 17.1903 22.318 17.1903 19.9351C17.1907 18.1846 16.1953 17.3231 15.0995 16.3851ZM11.8383 13.4703C9.69625 13.4703 8.72594 10.6571 8.72594 8.95983C8.72594 8.29877 8.84923 7.61639 9.27274 7.0834C9.6723 6.57594 10.3677 6.24661 11.017 6.24661C13.0819 6.24661 14.153 9.08509 14.153 10.9105C14.153 11.367 14.1033 12.1763 13.5308 12.7616C13.1304 13.1679 12.4603 13.4703 11.8383 13.4703ZM11.8629 23.6629C9.19912 23.6629 7.48155 22.3685 7.48155 20.5683C7.48155 18.769 9.07425 18.16 9.62203 17.9588C10.6671 17.6015 12.0119 17.5519 12.2363 17.5519C12.4852 17.5519 12.6097 17.5519 12.808 17.5772C14.7015 18.9464 15.5234 19.6285 15.5234 20.9247C15.5236 22.494 14.2535 23.6629 11.8629 23.6629Z" fill="black"/>
<path d="M21.3866 13.4316V10.8973H20.1548V13.4316H17.6641V14.697H20.1548V17.2472H21.3866V14.697H23.8898V13.4316H21.3866Z" fill="black"/>
</svg>
