<svg width="30" height="30" viewBox="0 0 30 30" fill="none" xmlns="http://www.w3.org/2000/svg">
<ellipse cx="14.5469" cy="14.5455" rx="14.5469" ry="14.5455" fill="#0077B5"/>
<path d="M7.50326 5.2892C6.28004 5.2892 5.28995 6.29688 5.28975 7.53677C5.28975 8.77788 6.27984 9.78536 7.50346 9.78536C8.72371 9.78536 9.71519 8.77788 9.71519 7.53677C9.71519 6.29668 8.72351 5.2892 7.50326 5.2892Z" fill="black"/>
<path d="M9.41102 11.4909H5.59413V23.9671H9.41102V11.4909Z" fill="black"/>
<path d="M19.1279 11.1808C17.2712 11.1808 16.0262 12.215 15.5166 13.1957H15.4656V11.491H11.8048H11.8046V23.967H15.6182V17.795C15.6182 16.1679 15.9231 14.5918 17.9088 14.5918C19.8661 14.5918 19.8922 16.4528 19.8922 17.8994V23.9668H23.7063V17.1237C23.7063 13.7647 22.9929 11.1808 19.1279 11.1808Z" fill="black"/>
</svg>
