<svg width="30" height="30" viewBox="0 0 30 30" fill="none" xmlns="http://www.w3.org/2000/svg">
<ellipse cx="14.5469" cy="14.5455" rx="14.5469" ry="14.5455" fill="#0084B4"/>
<path d="M24.1488 8.51613C24.1211 8.48296 24.0754 8.4717 24.0364 8.48979C23.4587 8.75016 22.851 8.93734 22.225 9.04792C22.8896 8.54006 23.3847 7.83677 23.6386 7.03034C23.6509 6.99174 23.6382 6.94952 23.6072 6.92439C23.5759 6.89926 23.5326 6.89604 23.4983 6.91675C22.7499 7.36771 21.9393 7.68558 21.0879 7.8619C20.3335 7.06653 19.2801 6.61155 18.1899 6.61155C15.9726 6.61155 14.1689 8.44395 14.1689 10.6964C14.1689 10.9688 14.1949 11.2386 14.2463 11.5006C11.1753 11.308 8.30377 9.81011 6.35129 7.37716C6.3313 7.35223 6.30102 7.33836 6.26936 7.34158C6.23789 7.34399 6.20979 7.36208 6.19396 7.38963C5.83774 8.01048 5.64953 8.7208 5.64953 9.44339C5.64953 10.6958 6.20959 11.8667 7.16327 12.6393C6.67228 12.5794 6.19277 12.4224 5.76036 12.1785C5.73127 12.1618 5.69505 12.162 5.66596 12.1791C5.63687 12.196 5.61846 12.2274 5.61767 12.2616L5.61728 12.3138C5.61728 14.1125 6.7839 15.6917 8.44368 16.2161C8.00652 16.2877 7.55293 16.2828 7.10707 16.1964C7.07421 16.1901 7.03978 16.2016 7.01722 16.2273C6.99486 16.2531 6.98734 16.2891 6.99763 16.3216C7.49535 17.8999 8.87827 19.0067 10.488 19.1446C9.14524 20.1441 7.55808 20.6706 5.88108 20.6706C5.57215 20.6706 5.26106 20.6519 4.95629 20.6155C4.91275 20.6105 4.86961 20.6368 4.85457 20.6793C4.83953 20.7221 4.85556 20.7699 4.89316 20.7943C6.7079 21.9767 8.80623 22.6013 10.9616 22.6013C18.0117 22.6013 22.2246 16.7833 22.2246 11.1586C22.2246 11.002 22.2217 10.8461 22.2155 10.6907C22.9761 10.1256 23.6289 9.43374 24.1554 8.63294C24.1789 8.59716 24.1763 8.54951 24.1488 8.51613Z" fill="black"/>
</svg>
