<svg width="30" height="30" viewBox="0 0 30 30" fill="none" xmlns="http://www.w3.org/2000/svg">
<ellipse cx="15.4531" cy="14.5455" rx="14.5469" ry="14.5455" fill="#FF0000"/>
<path d="M24.5954 10.5585C24.3607 9.52267 23.5267 8.75847 22.5228 8.64447C20.1454 8.37486 17.7391 8.37345 15.344 8.37486C12.9484 8.37345 10.5417 8.37486 8.16435 8.64447C7.161 8.75847 6.32764 9.52267 6.09293 10.5585C5.75888 12.0336 5.75512 13.6439 5.75512 15.1626C5.75512 16.6814 5.75512 18.2914 6.08917 19.7664C6.32348 20.802 7.15704 21.5662 8.16099 21.6804C10.5382 21.9502 12.9446 21.9516 15.3402 21.9502C17.7362 21.9516 20.142 21.9502 22.519 21.6804C23.5224 21.5664 24.3565 20.8022 24.5912 19.7664C24.9255 18.2912 24.9267 16.6812 24.9267 15.1626C24.9267 13.6439 24.9294 12.0336 24.5954 10.5585ZM12.8668 18.1857C12.8668 16.0312 12.8668 13.8992 12.8668 11.7445C14.8987 12.8216 16.9171 13.8914 18.9618 14.975C16.9234 16.0491 14.904 17.1124 12.8668 18.1857Z" fill="black"/>
</svg>
